<mxfile host="app.diagrams.net" modified="2023-04-20T21:30:31.144Z" agent="Mozilla/5.0 (Windows NT 10.0; Win64; x64) AppleWebKit/537.36 (KHTML, like Gecko) Chrome/112.0.0.0 Safari/537.36" etag="SuQ1XwG3BVjBhlEgz1aj" version="21.2.1" type="github">
  <diagram id="C5RBs43oDa-KdzZeNtuy" name="Page-1">
    <mxGraphModel dx="2899" dy="2123" grid="1" gridSize="10" guides="1" tooltips="1" connect="1" arrows="1" fold="1" page="1" pageScale="1" pageWidth="827" pageHeight="1169" math="0" shadow="0">
      <root>
        <mxCell id="WIyWlLk6GJQsqaUBKTNV-0" />
        <mxCell id="WIyWlLk6GJQsqaUBKTNV-1" parent="WIyWlLk6GJQsqaUBKTNV-0" />
        <mxCell id="l1KpTBiiVYSyApMP4u7i-6" value="&lt;span&gt;id&lt;/span&gt;" style="strokeWidth=1;fontStyle=4;html=1;fontFamily=Times New Roman;" parent="WIyWlLk6GJQsqaUBKTNV-1" vertex="1">
          <mxGeometry x="280" y="160" width="100" height="20" as="geometry" />
        </mxCell>
        <mxCell id="l1KpTBiiVYSyApMP4u7i-10" value="name" style="strokeWidth=1;fontStyle=0;html=1;fontFamily=Times New Roman;" parent="WIyWlLk6GJQsqaUBKTNV-1" vertex="1">
          <mxGeometry x="380.0000000000001" y="160" width="70" height="20" as="geometry" />
        </mxCell>
        <mxCell id="l1KpTBiiVYSyApMP4u7i-11" value="role" style="strokeWidth=1;fontStyle=0;html=1;fontFamily=Times New Roman;" parent="WIyWlLk6GJQsqaUBKTNV-1" vertex="1">
          <mxGeometry x="450.0000000000001" y="160" width="70" height="20" as="geometry" />
        </mxCell>
        <mxCell id="l1KpTBiiVYSyApMP4u7i-12" value="google_scholar_id" style="strokeWidth=1;fontStyle=0;html=1;fontFamily=Times New Roman;" parent="WIyWlLk6GJQsqaUBKTNV-1" vertex="1">
          <mxGeometry x="520" y="160" width="120" height="20" as="geometry" />
        </mxCell>
        <mxCell id="l1KpTBiiVYSyApMP4u7i-13" value="email" style="strokeWidth=1;fontStyle=0;html=1;fontFamily=Times New Roman;" parent="WIyWlLk6GJQsqaUBKTNV-1" vertex="1">
          <mxGeometry x="640" y="160" width="70" height="20" as="geometry" />
        </mxCell>
        <mxCell id="l1KpTBiiVYSyApMP4u7i-14" value="password" style="strokeWidth=1;fontStyle=0;html=1;fontFamily=Times New Roman;" parent="WIyWlLk6GJQsqaUBKTNV-1" vertex="1">
          <mxGeometry x="710" y="160" width="70" height="20" as="geometry" />
        </mxCell>
        <mxCell id="0" value="User" style="text;strokeColor=none;align=center;fillColor=none;html=1;verticalAlign=middle;whiteSpace=wrap;rounded=0;sketch=1;hachureGap=4;jiggle=2;curveFitting=1;fontFamily=Times New Roman;fontSize=20;fontStyle=1" parent="WIyWlLk6GJQsqaUBKTNV-1" vertex="1">
          <mxGeometry x="580" y="130" width="60" height="30" as="geometry" />
        </mxCell>
        <mxCell id="15" value="id" style="strokeWidth=1;fontStyle=4;html=1;fontFamily=Times New Roman;" parent="WIyWlLk6GJQsqaUBKTNV-1" vertex="1">
          <mxGeometry x="280" y="80" width="100" height="20" as="geometry" />
        </mxCell>
        <mxCell id="16" value="content" style="strokeWidth=1;fontStyle=0;html=1;fontFamily=Times New Roman;" parent="WIyWlLk6GJQsqaUBKTNV-1" vertex="1">
          <mxGeometry x="380" y="80" width="70" height="20" as="geometry" />
        </mxCell>
        <mxCell id="17" value="timestamp" style="strokeWidth=1;fontStyle=0;html=1;fontFamily=Times New Roman;" parent="WIyWlLk6GJQsqaUBKTNV-1" vertex="1">
          <mxGeometry x="450" y="80" width="70" height="20" as="geometry" />
        </mxCell>
        <mxCell id="21" value="Community Post" style="text;strokeColor=none;align=center;fillColor=none;html=1;verticalAlign=middle;whiteSpace=wrap;rounded=0;sketch=1;hachureGap=4;jiggle=2;curveFitting=1;fontFamily=Times New Roman;fontSize=20;fontStyle=1" parent="WIyWlLk6GJQsqaUBKTNV-1" vertex="1">
          <mxGeometry x="355" y="50" width="170" height="30" as="geometry" />
        </mxCell>
        <mxCell id="22" value="id" style="strokeWidth=1;fontStyle=4;html=1;fontFamily=Times New Roman;" parent="WIyWlLk6GJQsqaUBKTNV-1" vertex="1">
          <mxGeometry x="280" y="-360" width="100" height="20" as="geometry" />
        </mxCell>
        <mxCell id="23" value="hyper_link" style="strokeWidth=1;fontStyle=0;html=1;fontFamily=Times New Roman;" parent="WIyWlLk6GJQsqaUBKTNV-1" vertex="1">
          <mxGeometry x="380" y="-360" width="70" height="20" as="geometry" />
        </mxCell>
        <mxCell id="25" value="Resource" style="text;strokeColor=none;align=center;fillColor=none;html=1;verticalAlign=middle;whiteSpace=wrap;rounded=0;sketch=1;hachureGap=4;jiggle=2;curveFitting=1;fontFamily=Times New Roman;fontSize=20;fontStyle=1" parent="WIyWlLk6GJQsqaUBKTNV-1" vertex="1">
          <mxGeometry x="310" y="-390" width="110" height="30" as="geometry" />
        </mxCell>
        <mxCell id="26" value="id" style="strokeWidth=1;fontStyle=4;html=1;fontFamily=Times New Roman;" parent="WIyWlLk6GJQsqaUBKTNV-1" vertex="1">
          <mxGeometry x="350" y="-55" width="100" height="20" as="geometry" />
        </mxCell>
        <mxCell id="27" value="timestamp" style="strokeWidth=1;fontStyle=0;html=1;fontFamily=Times New Roman;" parent="WIyWlLk6GJQsqaUBKTNV-1" vertex="1">
          <mxGeometry x="280" y="-55" width="70" height="20" as="geometry" />
        </mxCell>
        <mxCell id="29" value="Resource Post" style="text;strokeColor=none;align=center;fillColor=none;html=1;verticalAlign=middle;whiteSpace=wrap;rounded=0;sketch=1;hachureGap=4;jiggle=2;curveFitting=1;fontFamily=Times New Roman;fontSize=20;fontStyle=1" parent="WIyWlLk6GJQsqaUBKTNV-1" vertex="1">
          <mxGeometry x="265" y="-80" width="160" height="20" as="geometry" />
        </mxCell>
        <mxCell id="30" value="id" style="strokeWidth=1;fontStyle=4;html=1;fontFamily=Times New Roman;" parent="WIyWlLk6GJQsqaUBKTNV-1" vertex="1">
          <mxGeometry x="280" y="310" width="100" height="20" as="geometry" />
        </mxCell>
        <mxCell id="31" value="publisher" style="strokeWidth=1;fontStyle=0;html=1;fontFamily=Times New Roman;" parent="WIyWlLk6GJQsqaUBKTNV-1" vertex="1">
          <mxGeometry x="380" y="310" width="70" height="20" as="geometry" />
        </mxCell>
        <mxCell id="32" value="Textbook" style="text;strokeColor=none;align=center;fillColor=none;html=1;verticalAlign=middle;whiteSpace=wrap;rounded=0;sketch=1;hachureGap=4;jiggle=2;curveFitting=1;fontFamily=Times New Roman;fontSize=20;fontStyle=1" parent="WIyWlLk6GJQsqaUBKTNV-1" vertex="1">
          <mxGeometry x="265" y="280" width="110" height="30" as="geometry" />
        </mxCell>
        <mxCell id="36" value="id" style="strokeWidth=1;fontStyle=4;html=1;fontFamily=Times New Roman;" parent="WIyWlLk6GJQsqaUBKTNV-1" vertex="1">
          <mxGeometry x="280" y="370" width="100" height="20" as="geometry" />
        </mxCell>
        <mxCell id="37" value="DOI" style="strokeWidth=1;fontStyle=0;html=1;fontFamily=Times New Roman;" parent="WIyWlLk6GJQsqaUBKTNV-1" vertex="1">
          <mxGeometry x="380" y="370" width="70" height="20" as="geometry" />
        </mxCell>
        <mxCell id="38" value="Research Paper" style="text;strokeColor=none;align=center;fillColor=none;html=1;verticalAlign=middle;whiteSpace=wrap;rounded=0;sketch=1;hachureGap=4;jiggle=2;curveFitting=1;fontFamily=Times New Roman;fontSize=20;fontStyle=1" parent="WIyWlLk6GJQsqaUBKTNV-1" vertex="1">
          <mxGeometry x="261" y="340" width="170" height="30" as="geometry" />
        </mxCell>
        <mxCell id="39" value="citations" style="strokeWidth=1;fontStyle=0;html=1;fontFamily=Times New Roman;" parent="WIyWlLk6GJQsqaUBKTNV-1" vertex="1">
          <mxGeometry x="450" y="370" width="70" height="20" as="geometry" />
        </mxCell>
        <mxCell id="40" value="id" style="strokeWidth=1;fontStyle=4;html=1;fontFamily=Times New Roman;" parent="WIyWlLk6GJQsqaUBKTNV-1" vertex="1">
          <mxGeometry x="281" y="766.25" width="100" height="20" as="geometry" />
        </mxCell>
        <mxCell id="41" value="content" style="strokeWidth=1;fontStyle=0;html=1;fontFamily=Times New Roman;" parent="WIyWlLk6GJQsqaUBKTNV-1" vertex="1">
          <mxGeometry x="381" y="766.25" width="70" height="20" as="geometry" />
        </mxCell>
        <mxCell id="42" value="Comment" style="text;strokeColor=none;align=center;fillColor=none;html=1;verticalAlign=middle;whiteSpace=wrap;rounded=0;sketch=1;hachureGap=4;jiggle=2;curveFitting=1;fontFamily=Times New Roman;fontSize=20;fontStyle=1" parent="WIyWlLk6GJQsqaUBKTNV-1" vertex="1">
          <mxGeometry x="335" y="736.25" width="110" height="30" as="geometry" />
        </mxCell>
        <mxCell id="43" value="timestamp" style="strokeWidth=1;fontStyle=0;html=1;fontFamily=Times New Roman;" parent="WIyWlLk6GJQsqaUBKTNV-1" vertex="1">
          <mxGeometry x="451" y="766.25" width="70" height="20" as="geometry" />
        </mxCell>
        <mxCell id="117" style="edgeStyle=orthogonalEdgeStyle;rounded=0;orthogonalLoop=1;jettySize=auto;html=1;fontFamily=Times New Roman;fontSize=19;exitX=0.5;exitY=0;exitDx=0;exitDy=0;entryX=0;entryY=1;entryDx=0;entryDy=0;fillColor=#fff2cc;strokeColor=#d6b656;" parent="WIyWlLk6GJQsqaUBKTNV-1" source="45" target="25" edge="1">
          <mxGeometry relative="1" as="geometry">
            <Array as="points">
              <mxPoint x="385" y="-200" />
              <mxPoint x="610" y="-200" />
              <mxPoint x="610" y="-450" />
              <mxPoint x="310" y="-450" />
            </Array>
          </mxGeometry>
        </mxCell>
        <mxCell id="45" value="resource_id" style="strokeWidth=1;fontStyle=4;html=1;fontFamily=Times New Roman;" parent="WIyWlLk6GJQsqaUBKTNV-1" vertex="1">
          <mxGeometry x="350.0000000000001" y="-180" width="70" height="20" as="geometry" />
        </mxCell>
        <mxCell id="46" value="Rating" style="text;strokeColor=none;align=center;fillColor=none;html=1;verticalAlign=middle;whiteSpace=wrap;rounded=0;sketch=1;hachureGap=4;jiggle=2;curveFitting=1;fontFamily=Times New Roman;fontSize=20;fontStyle=1" parent="WIyWlLk6GJQsqaUBKTNV-1" vertex="1">
          <mxGeometry x="265" y="-210" width="90" height="30" as="geometry" />
        </mxCell>
        <mxCell id="118" style="edgeStyle=orthogonalEdgeStyle;rounded=0;orthogonalLoop=1;jettySize=auto;html=1;;fontFamily=Times New Roman;fontSize=19;exitX=0;exitY=0.5;exitDx=0;exitDy=0;fillColor=#0050ef;strokeColor=#001DBC;" parent="WIyWlLk6GJQsqaUBKTNV-1" source="47" target="l1KpTBiiVYSyApMP4u7i-6" edge="1">
          <mxGeometry relative="1" as="geometry">
            <Array as="points">
              <mxPoint x="180" y="-170" />
              <mxPoint x="180" y="160" />
            </Array>
            <mxPoint x="270" y="540" as="sourcePoint" />
            <mxPoint x="230" y="230" as="targetPoint" />
          </mxGeometry>
        </mxCell>
        <mxCell id="47" value="user_id" style="strokeWidth=1;fontStyle=4;html=1;fontFamily=Times New Roman;" parent="WIyWlLk6GJQsqaUBKTNV-1" vertex="1">
          <mxGeometry x="280.0000000000001" y="-180" width="70" height="20" as="geometry" />
        </mxCell>
        <mxCell id="48" value="value" style="strokeWidth=1;fontStyle=0;html=1;fontFamily=Times New Roman;" parent="WIyWlLk6GJQsqaUBKTNV-1" vertex="1">
          <mxGeometry x="420.0000000000001" y="-180" width="70" height="20" as="geometry" />
        </mxCell>
        <mxCell id="50" value="vote_type" style="strokeWidth=1;fontStyle=0;html=1;fontFamily=Times New Roman;" parent="WIyWlLk6GJQsqaUBKTNV-1" vertex="1">
          <mxGeometry x="460.0000000000001" y="-230" width="70" height="20" as="geometry" />
        </mxCell>
        <mxCell id="51" value="Vote" style="text;strokeColor=none;align=center;fillColor=none;html=1;verticalAlign=middle;whiteSpace=wrap;rounded=0;sketch=1;hachureGap=4;jiggle=2;curveFitting=1;fontFamily=Times New Roman;fontSize=20;fontStyle=1" parent="WIyWlLk6GJQsqaUBKTNV-1" vertex="1">
          <mxGeometry x="255" y="-260" width="90" height="30" as="geometry" />
        </mxCell>
        <mxCell id="119" style="edgeStyle=orthogonalEdgeStyle;rounded=0;orthogonalLoop=1;jettySize=auto;html=1;;entryX=0.5;entryY=0;entryDx=0;entryDy=0;fontFamily=Times New Roman;fontSize=19;fillColor=#0050ef;strokeColor=#001DBC;" parent="WIyWlLk6GJQsqaUBKTNV-1" source="52" target="l1KpTBiiVYSyApMP4u7i-6" edge="1">
          <mxGeometry relative="1" as="geometry">
            <Array as="points">
              <mxPoint x="45" y="-220" />
              <mxPoint x="45" y="130" />
              <mxPoint x="330" y="130" />
            </Array>
          </mxGeometry>
        </mxCell>
        <mxCell id="52" value="user_id" style="strokeWidth=1;fontStyle=4;html=1;fontFamily=Times New Roman;" parent="WIyWlLk6GJQsqaUBKTNV-1" vertex="1">
          <mxGeometry x="280.0000000000001" y="-230" width="70" height="20" as="geometry" />
        </mxCell>
        <mxCell id="120" style="edgeStyle=orthogonalEdgeStyle;rounded=0;orthogonalLoop=1;jettySize=auto;html=1;;fontFamily=Times New Roman;fontSize=19;fillColor=#d80073;strokeColor=#A50040;" parent="WIyWlLk6GJQsqaUBKTNV-1" source="53" target="15" edge="1">
          <mxGeometry relative="1" as="geometry">
            <Array as="points">
              <mxPoint x="405" y="-260" />
              <mxPoint x="135" y="-260" />
              <mxPoint x="135" y="90" />
            </Array>
            <mxPoint x="1400" y="90" as="targetPoint" />
          </mxGeometry>
        </mxCell>
        <mxCell id="53" value="community_post_id" style="strokeWidth=1;fontStyle=4;html=1;fontFamily=Times New Roman;" parent="WIyWlLk6GJQsqaUBKTNV-1" vertex="1">
          <mxGeometry x="350" y="-230" width="110" height="20" as="geometry" />
        </mxCell>
        <mxCell id="54" value="id" style="strokeWidth=1;fontStyle=4;html=1;fontFamily=Times New Roman;" parent="WIyWlLk6GJQsqaUBKTNV-1" vertex="1">
          <mxGeometry x="280" y="248" width="100" height="20" as="geometry" />
        </mxCell>
        <mxCell id="55" value="content" style="strokeWidth=1;fontStyle=0;html=1;fontFamily=Times New Roman;" parent="WIyWlLk6GJQsqaUBKTNV-1" vertex="1">
          <mxGeometry x="460.0000000000001" y="248" width="70" height="20" as="geometry" />
        </mxCell>
        <mxCell id="56" value="Ticket" style="text;strokeColor=none;align=center;fillColor=none;html=1;verticalAlign=middle;whiteSpace=wrap;rounded=0;sketch=1;hachureGap=4;jiggle=2;curveFitting=1;fontFamily=Times New Roman;fontSize=20;fontStyle=1" parent="WIyWlLk6GJQsqaUBKTNV-1" vertex="1">
          <mxGeometry x="280" y="218" width="60" height="30" as="geometry" />
        </mxCell>
        <mxCell id="57" value="timestamp" style="strokeWidth=1;fontStyle=0;html=1;fontFamily=Times New Roman;" parent="WIyWlLk6GJQsqaUBKTNV-1" vertex="1">
          <mxGeometry x="530.0000000000001" y="248" width="70" height="20" as="geometry" />
        </mxCell>
        <mxCell id="121" style="edgeStyle=orthogonalEdgeStyle;rounded=0;orthogonalLoop=1;jettySize=auto;html=1;;entryX=0.895;entryY=1.027;entryDx=0;entryDy=0;entryPerimeter=0;fontFamily=Times New Roman;fontSize=19;exitX=0.5;exitY=0;exitDx=0;exitDy=0;fillColor=#0050ef;strokeColor=#001DBC;" parent="WIyWlLk6GJQsqaUBKTNV-1" source="58" target="l1KpTBiiVYSyApMP4u7i-6" edge="1">
          <mxGeometry relative="1" as="geometry">
            <Array as="points">
              <mxPoint x="420" y="210" />
              <mxPoint x="370" y="210" />
            </Array>
          </mxGeometry>
        </mxCell>
        <mxCell id="58" value="user_id" style="strokeWidth=1;fontStyle=0;html=1;fontFamily=Times New Roman;" parent="WIyWlLk6GJQsqaUBKTNV-1" vertex="1">
          <mxGeometry x="380" y="248" width="80" height="20" as="geometry" />
        </mxCell>
        <mxCell id="68" style="edgeStyle=orthogonalEdgeStyle;rounded=0;orthogonalLoop=1;jettySize=auto;html=1;;entryX=0;entryY=0.5;entryDx=0;entryDy=0;fontFamily=Times New Roman;fontSize=16;exitX=0;exitY=0.5;exitDx=0;exitDy=0;horizontal=0;fillColor=#f8cecc;strokeColor=#b85450;fontStyle=1" parent="WIyWlLk6GJQsqaUBKTNV-1" source="63" target="40" edge="1">
          <mxGeometry relative="1" as="geometry">
            <Array as="points">
              <mxPoint x="210" y="10" />
              <mxPoint x="210" y="776" />
            </Array>
          </mxGeometry>
        </mxCell>
        <mxCell id="63" value="comment_id" style="strokeWidth=1;fontStyle=4;html=1;fontFamily=Times New Roman;" parent="WIyWlLk6GJQsqaUBKTNV-1" vertex="1">
          <mxGeometry x="280" width="100" height="20" as="geometry" />
        </mxCell>
        <mxCell id="123" style="edgeStyle=orthogonalEdgeStyle;rounded=0;orthogonalLoop=1;jettySize=auto;html=1;;entryX=0.5;entryY=1;entryDx=0;entryDy=0;fontFamily=Times New Roman;fontSize=19;exitX=0.5;exitY=1;exitDx=0;exitDy=0;fillColor=#0050ef;strokeColor=#001DBC;" parent="WIyWlLk6GJQsqaUBKTNV-1" source="65" target="l1KpTBiiVYSyApMP4u7i-6" edge="1">
          <mxGeometry relative="1" as="geometry">
            <Array as="points">
              <mxPoint x="1160" y="200" />
              <mxPoint x="330" y="200" />
            </Array>
          </mxGeometry>
        </mxCell>
        <mxCell id="64" value="user_id" style="strokeWidth=1;fontStyle=0;html=1;fontFamily=Times New Roman;" parent="WIyWlLk6GJQsqaUBKTNV-1" vertex="1">
          <mxGeometry x="380" width="70" height="20" as="geometry" />
        </mxCell>
        <mxCell id="65" value="Community Post Comment" style="text;strokeColor=none;align=center;fillColor=none;html=1;verticalAlign=middle;whiteSpace=wrap;rounded=0;sketch=1;hachureGap=4;jiggle=2;curveFitting=1;fontFamily=Times New Roman;fontSize=19;fontStyle=1" parent="WIyWlLk6GJQsqaUBKTNV-1" vertex="1">
          <mxGeometry x="261" y="-30" width="260" height="30" as="geometry" />
        </mxCell>
        <mxCell id="122" style="edgeStyle=orthogonalEdgeStyle;rounded=0;orthogonalLoop=1;jettySize=auto;html=1;;fontFamily=Times New Roman;fontSize=19;exitX=0.75;exitY=0;exitDx=0;exitDy=0;entryX=0;entryY=0.75;entryDx=0;entryDy=0;fillColor=#d80073;strokeColor=#A50040;" parent="WIyWlLk6GJQsqaUBKTNV-1" source="66" target="15" edge="1">
          <mxGeometry relative="1" as="geometry">
            <Array as="points">
              <mxPoint x="540" y="-30" />
              <mxPoint x="-60" y="-30" />
              <mxPoint x="-60" y="95" />
            </Array>
            <mxPoint x="1000" y="60" as="targetPoint" />
          </mxGeometry>
        </mxCell>
        <mxCell id="66" value="community_post_id" style="strokeWidth=1;fontStyle=0;html=1;fontFamily=Times New Roman;" parent="WIyWlLk6GJQsqaUBKTNV-1" vertex="1">
          <mxGeometry x="450" width="120" height="20" as="geometry" />
        </mxCell>
        <mxCell id="VzL5e_v8ECT08JJZFIV7-141" style="edgeStyle=orthogonalEdgeStyle;rounded=0;orthogonalLoop=1;jettySize=auto;html=1;exitX=1;exitY=0.5;exitDx=0;exitDy=0;fontFamily=Times New Roman;entryX=0.393;entryY=-0.072;entryDx=0;entryDy=0;entryPerimeter=0;fillColor=#f8cecc;strokeColor=#b85450;" parent="WIyWlLk6GJQsqaUBKTNV-1" source="70" target="40" edge="1">
          <mxGeometry relative="1" as="geometry">
            <mxPoint x="320" y="760" as="targetPoint" />
            <Array as="points">
              <mxPoint x="1270" y="-110" />
              <mxPoint x="1270" y="720" />
              <mxPoint x="320" y="720" />
            </Array>
          </mxGeometry>
        </mxCell>
        <mxCell id="70" value="comment_id" style="strokeWidth=1;fontStyle=4;html=1;fontFamily=Times New Roman;" parent="WIyWlLk6GJQsqaUBKTNV-1" vertex="1">
          <mxGeometry x="460" y="-120" width="100" height="20" as="geometry" />
        </mxCell>
        <mxCell id="126" style="edgeStyle=orthogonalEdgeStyle;rounded=0;orthogonalLoop=1;jettySize=auto;html=1;;fontFamily=Times New Roman;fontSize=19;exitX=0;exitY=0.5;exitDx=0;exitDy=0;fillColor=#0050ef;strokeColor=#001DBC;" parent="WIyWlLk6GJQsqaUBKTNV-1" source="71" edge="1">
          <mxGeometry relative="1" as="geometry">
            <mxPoint x="280" y="170" as="targetPoint" />
            <Array as="points">
              <mxPoint x="-10" y="-110" />
              <mxPoint x="-10" y="170" />
            </Array>
          </mxGeometry>
        </mxCell>
        <mxCell id="71" value="user_id" style="strokeWidth=1;fontStyle=0;html=1;fontFamily=Times New Roman;" parent="WIyWlLk6GJQsqaUBKTNV-1" vertex="1">
          <mxGeometry x="280" y="-120" width="70" height="20" as="geometry" />
        </mxCell>
        <mxCell id="72" value="Resource Post Comment" style="text;strokeColor=none;align=center;fillColor=none;html=1;verticalAlign=middle;whiteSpace=wrap;rounded=0;sketch=1;hachureGap=4;jiggle=2;curveFitting=1;fontFamily=Times New Roman;fontSize=19;fontStyle=1" parent="WIyWlLk6GJQsqaUBKTNV-1" vertex="1">
          <mxGeometry x="250" y="-150" width="260" height="30" as="geometry" />
        </mxCell>
        <mxCell id="imE6QKsBFbqvAE9hHsYf-133" style="edgeStyle=orthogonalEdgeStyle;rounded=0;orthogonalLoop=1;jettySize=auto;html=1;exitX=0.75;exitY=1;exitDx=0;exitDy=0;entryX=0.83;entryY=0.018;entryDx=0;entryDy=0;entryPerimeter=0;fillColor=#60a917;strokeColor=#2D7600;" parent="WIyWlLk6GJQsqaUBKTNV-1" source="73" target="26" edge="1">
          <mxGeometry relative="1" as="geometry" />
        </mxCell>
        <mxCell id="73" value="resource_post_id" style="strokeWidth=1;fontStyle=0;html=1;fontFamily=Times New Roman;" parent="WIyWlLk6GJQsqaUBKTNV-1" vertex="1">
          <mxGeometry x="350" y="-120" width="110" height="20" as="geometry" />
        </mxCell>
        <mxCell id="116" style="edgeStyle=orthogonalEdgeStyle;rounded=0;orthogonalLoop=1;jettySize=auto;html=1;;entryX=0.094;entryY=-0.087;entryDx=0;entryDy=0;fontFamily=Times New Roman;fontSize=19;exitX=1;exitY=0.5;exitDx=0;exitDy=0;entryPerimeter=0;fillColor=#fff2cc;strokeColor=#d6b656;" parent="WIyWlLk6GJQsqaUBKTNV-1" source="76" target="22" edge="1">
          <mxGeometry relative="1" as="geometry">
            <mxPoint x="675.0000000000005" y="380" as="sourcePoint" />
            <Array as="points">
              <mxPoint x="800" y="380" />
              <mxPoint x="800" y="-420" />
              <mxPoint x="289" y="-420" />
            </Array>
          </mxGeometry>
        </mxCell>
        <mxCell id="76" value="resource_id" style="strokeWidth=1;fontStyle=0;html=1;fontFamily=Times New Roman;" parent="WIyWlLk6GJQsqaUBKTNV-1" vertex="1">
          <mxGeometry x="520" y="370" width="70" height="20" as="geometry" />
        </mxCell>
        <mxCell id="115" style="edgeStyle=orthogonalEdgeStyle;rounded=0;orthogonalLoop=1;jettySize=auto;html=1;;entryX=0;entryY=0.5;entryDx=0;entryDy=0;fontFamily=Times New Roman;fontSize=19;exitX=1;exitY=0.5;exitDx=0;exitDy=0;fillColor=#fff2cc;strokeColor=#d6b656;" parent="WIyWlLk6GJQsqaUBKTNV-1" source="77" target="22" edge="1">
          <mxGeometry relative="1" as="geometry">
            <Array as="points">
              <mxPoint x="520" y="280" />
              <mxPoint x="-160" y="280" />
              <mxPoint x="-160" y="-350" />
            </Array>
          </mxGeometry>
        </mxCell>
        <mxCell id="77" value="resource_id" style="strokeWidth=1;fontStyle=0;html=1;fontFamily=Times New Roman;" parent="WIyWlLk6GJQsqaUBKTNV-1" vertex="1">
          <mxGeometry x="450" y="310" width="70" height="20" as="geometry" />
        </mxCell>
        <mxCell id="80" style="edgeStyle=orthogonalEdgeStyle;rounded=0;orthogonalLoop=1;jettySize=auto;html=1;;entryX=0.75;entryY=0;entryDx=0;entryDy=0;fontFamily=Times New Roman;fontSize=19;exitX=0.5;exitY=1;exitDx=0;exitDy=0;fillColor=#0050ef;strokeColor=#001DBC;" parent="WIyWlLk6GJQsqaUBKTNV-1" source="79" target="l1KpTBiiVYSyApMP4u7i-6" edge="1">
          <mxGeometry relative="1" as="geometry" />
        </mxCell>
        <mxCell id="79" value="creator_id" style="strokeWidth=1;fontStyle=0;html=1;fontFamily=Times New Roman;" parent="WIyWlLk6GJQsqaUBKTNV-1" vertex="1">
          <mxGeometry x="520" y="80" width="70" height="20" as="geometry" />
        </mxCell>
        <mxCell id="81" value="id" style="strokeWidth=1;fontStyle=4;html=1;fontFamily=Times New Roman;" parent="WIyWlLk6GJQsqaUBKTNV-1" vertex="1">
          <mxGeometry x="280" y="-290" width="80" height="20" as="geometry" />
        </mxCell>
        <mxCell id="82" value="url" style="strokeWidth=1;fontStyle=0;html=1;fontFamily=Times New Roman;" parent="WIyWlLk6GJQsqaUBKTNV-1" vertex="1">
          <mxGeometry x="360" y="-290" width="70" height="20" as="geometry" />
        </mxCell>
        <mxCell id="83" value="Community Post Attachment" style="text;strokeColor=none;align=center;fillColor=none;html=1;verticalAlign=middle;whiteSpace=wrap;rounded=0;sketch=1;hachureGap=4;jiggle=2;curveFitting=1;fontFamily=Times New Roman;fontSize=20;fontStyle=1" parent="WIyWlLk6GJQsqaUBKTNV-1" vertex="1">
          <mxGeometry x="265" y="-320" width="280" height="30" as="geometry" />
        </mxCell>
        <mxCell id="VzL5e_v8ECT08JJZFIV7-140" style="edgeStyle=orthogonalEdgeStyle;rounded=0;orthogonalLoop=1;jettySize=auto;html=1;exitX=1;exitY=0.25;exitDx=0;exitDy=0;entryX=0.5;entryY=0;entryDx=0;entryDy=0;fontFamily=Times New Roman;fillColor=#d80073;strokeColor=#A50040;" parent="WIyWlLk6GJQsqaUBKTNV-1" source="84" target="15" edge="1">
          <mxGeometry relative="1" as="geometry">
            <mxPoint x="-367.5" y="140" as="targetPoint" />
            <mxPoint x="252.50000000000045" y="30" as="sourcePoint" />
            <Array as="points">
              <mxPoint x="730" y="-285" />
              <mxPoint x="730" y="40" />
              <mxPoint x="330" y="40" />
            </Array>
          </mxGeometry>
        </mxCell>
        <mxCell id="84" value="community_post_id" style="strokeWidth=1;fontStyle=0;html=1;fontFamily=Times New Roman;" parent="WIyWlLk6GJQsqaUBKTNV-1" vertex="1">
          <mxGeometry x="430" y="-290" width="110" height="20" as="geometry" />
        </mxCell>
        <mxCell id="86" value="id" style="strokeWidth=1;fontStyle=4;html=1;fontFamily=Times New Roman;" parent="WIyWlLk6GJQsqaUBKTNV-1" vertex="1">
          <mxGeometry x="280" y="473" width="100" height="20" as="geometry" />
        </mxCell>
        <mxCell id="87" value="name" style="strokeWidth=1;fontStyle=0;html=1;fontFamily=Times New Roman;" parent="WIyWlLk6GJQsqaUBKTNV-1" vertex="1">
          <mxGeometry x="380.0000000000001" y="473" width="70" height="20" as="geometry" />
        </mxCell>
        <mxCell id="88" value="Topic" style="text;strokeColor=none;align=center;fillColor=none;html=1;verticalAlign=middle;whiteSpace=wrap;rounded=0;sketch=1;hachureGap=4;jiggle=2;curveFitting=1;fontFamily=Times New Roman;fontSize=20;fontStyle=1" parent="WIyWlLk6GJQsqaUBKTNV-1" vertex="1">
          <mxGeometry x="218" y="442.75" width="170" height="30" as="geometry" />
        </mxCell>
        <mxCell id="90" value="id" style="strokeWidth=1;fontStyle=4;html=1;fontFamily=Times New Roman;" parent="WIyWlLk6GJQsqaUBKTNV-1" vertex="1">
          <mxGeometry x="281" y="606.25" width="100" height="20" as="geometry" />
        </mxCell>
        <mxCell id="91" value="name" style="strokeWidth=1;fontStyle=0;html=1;fontFamily=Times New Roman;" parent="WIyWlLk6GJQsqaUBKTNV-1" vertex="1">
          <mxGeometry x="381.0000000000001" y="606.25" width="70" height="20" as="geometry" />
        </mxCell>
        <mxCell id="92" value="Keyword" style="text;strokeColor=none;align=center;fillColor=none;html=1;verticalAlign=middle;whiteSpace=wrap;rounded=0;sketch=1;hachureGap=4;jiggle=2;curveFitting=1;fontFamily=Times New Roman;fontSize=20;fontStyle=1" parent="WIyWlLk6GJQsqaUBKTNV-1" vertex="1">
          <mxGeometry x="271" y="576.25" width="100" height="30" as="geometry" />
        </mxCell>
        <mxCell id="VzL5e_v8ECT08JJZFIV7-133" style="edgeStyle=orthogonalEdgeStyle;rounded=0;orthogonalLoop=1;jettySize=auto;html=1;exitX=0;exitY=0.5;exitDx=0;exitDy=0;entryX=0;entryY=0.5;entryDx=0;entryDy=0;fontFamily=Times New Roman;fillColor=#d5e8d4;strokeColor=#82b366;" parent="WIyWlLk6GJQsqaUBKTNV-1" source="95" target="90" edge="1">
          <mxGeometry relative="1" as="geometry" />
        </mxCell>
        <mxCell id="95" value="keyword_id" style="strokeWidth=1;fontStyle=4;html=1;fontFamily=Times New Roman;" parent="WIyWlLk6GJQsqaUBKTNV-1" vertex="1">
          <mxGeometry x="281" y="540" width="100" height="20" as="geometry" />
        </mxCell>
        <mxCell id="YNRTXnZJncFbBHb8N_fM-126" style="edgeStyle=orthogonalEdgeStyle;rounded=0;orthogonalLoop=1;jettySize=auto;html=1;exitX=0.75;exitY=0;exitDx=0;exitDy=0;entryX=0.75;entryY=1;entryDx=0;entryDy=0;fillColor=#dae8fc;strokeColor=#6c8ebf;" edge="1" parent="WIyWlLk6GJQsqaUBKTNV-1" source="96" target="86">
          <mxGeometry relative="1" as="geometry" />
        </mxCell>
        <mxCell id="96" value="topic_id" style="strokeWidth=1;fontStyle=4;html=1;fontFamily=Times New Roman;" parent="WIyWlLk6GJQsqaUBKTNV-1" vertex="1">
          <mxGeometry x="381.0000000000001" y="540" width="70" height="20" as="geometry" />
        </mxCell>
        <mxCell id="97" value="Topic Keywords" style="text;strokeColor=none;align=center;fillColor=none;html=1;verticalAlign=middle;whiteSpace=wrap;rounded=0;sketch=1;hachureGap=4;jiggle=2;curveFitting=1;fontFamily=Times New Roman;fontSize=20;fontStyle=1" parent="WIyWlLk6GJQsqaUBKTNV-1" vertex="1">
          <mxGeometry x="261" y="520" width="150" height="20" as="geometry" />
        </mxCell>
        <mxCell id="VzL5e_v8ECT08JJZFIV7-148" style="edgeStyle=orthogonalEdgeStyle;rounded=0;orthogonalLoop=1;jettySize=auto;html=1;exitX=1;exitY=0.25;exitDx=0;exitDy=0;fontFamily=Times New Roman;fillColor=#fff2cc;strokeColor=#d6b656;" parent="WIyWlLk6GJQsqaUBKTNV-1" source="103" target="22" edge="1">
          <mxGeometry relative="1" as="geometry">
            <mxPoint x="680.0000000000005" y="563.75" as="sourcePoint" />
            <Array as="points">
              <mxPoint x="445" y="434" />
              <mxPoint x="970" y="434" />
              <mxPoint x="970" y="-320" />
              <mxPoint x="370" y="-320" />
            </Array>
          </mxGeometry>
        </mxCell>
        <mxCell id="103" value="resource_id" style="strokeWidth=1;fontStyle=4;html=1;fontFamily=Times New Roman;" parent="WIyWlLk6GJQsqaUBKTNV-1" vertex="1">
          <mxGeometry x="345" y="423.75" width="100" height="20" as="geometry" />
        </mxCell>
        <mxCell id="VzL5e_v8ECT08JJZFIV7-149" style="edgeStyle=orthogonalEdgeStyle;rounded=0;orthogonalLoop=1;jettySize=auto;html=1;exitX=0;exitY=0.5;exitDx=0;exitDy=0;fontFamily=Times New Roman;entryX=0;entryY=0.25;entryDx=0;entryDy=0;fillColor=#dae8fc;strokeColor=#6c8ebf;" parent="WIyWlLk6GJQsqaUBKTNV-1" source="104" target="86" edge="1">
          <mxGeometry relative="1" as="geometry">
            <mxPoint x="180" y="520" as="targetPoint" />
            <Array as="points">
              <mxPoint x="260" y="434" />
              <mxPoint x="260" y="478" />
            </Array>
          </mxGeometry>
        </mxCell>
        <mxCell id="104" value="topic_id" style="strokeWidth=1;fontStyle=4;html=1;fontFamily=Times New Roman;" parent="WIyWlLk6GJQsqaUBKTNV-1" vertex="1">
          <mxGeometry x="280.0000000000001" y="423.75" width="70" height="20" as="geometry" />
        </mxCell>
        <mxCell id="105" value="Resource Topic" style="text;strokeColor=none;align=center;fillColor=none;html=1;verticalAlign=middle;whiteSpace=wrap;rounded=0;sketch=1;hachureGap=4;jiggle=2;curveFitting=1;fontFamily=Times New Roman;fontSize=20;fontStyle=1" parent="WIyWlLk6GJQsqaUBKTNV-1" vertex="1">
          <mxGeometry x="266" y="405" width="160" height="12.5" as="geometry" />
        </mxCell>
        <mxCell id="VzL5e_v8ECT08JJZFIV7-138" style="edgeStyle=orthogonalEdgeStyle;rounded=0;orthogonalLoop=1;jettySize=auto;html=1;exitX=0;exitY=0.5;exitDx=0;exitDy=0;entryX=0;entryY=0.75;entryDx=0;entryDy=0;fontFamily=Times New Roman;fillColor=#0050ef;strokeColor=#001DBC;" parent="WIyWlLk6GJQsqaUBKTNV-1" source="108" target="l1KpTBiiVYSyApMP4u7i-6" edge="1">
          <mxGeometry relative="1" as="geometry">
            <Array as="points">
              <mxPoint x="281" y="690" />
              <mxPoint x="110" y="690" />
              <mxPoint x="110" y="175" />
            </Array>
          </mxGeometry>
        </mxCell>
        <mxCell id="108" value="user_id" style="strokeWidth=1;fontStyle=4;html=1;fontFamily=Times New Roman;" parent="WIyWlLk6GJQsqaUBKTNV-1" vertex="1">
          <mxGeometry x="281" y="686.25" width="100" height="20" as="geometry" />
        </mxCell>
        <mxCell id="VzL5e_v8ECT08JJZFIV7-143" style="edgeStyle=orthogonalEdgeStyle;rounded=0;orthogonalLoop=1;jettySize=auto;html=1;exitX=0.5;exitY=1;exitDx=0;exitDy=0;entryX=0;entryY=0.5;entryDx=0;entryDy=0;fontFamily=Times New Roman;fillColor=#dae8fc;strokeColor=#6c8ebf;fontStyle=1" parent="WIyWlLk6GJQsqaUBKTNV-1" source="109" target="86" edge="1">
          <mxGeometry relative="1" as="geometry">
            <Array as="points">
              <mxPoint x="416" y="700" />
              <mxPoint x="415" y="700" />
              <mxPoint x="415" y="730" />
              <mxPoint x="70" y="730" />
              <mxPoint x="70" y="483" />
            </Array>
          </mxGeometry>
        </mxCell>
        <mxCell id="109" value="topic_id" style="strokeWidth=1;fontStyle=4;html=1;fontFamily=Times New Roman;" parent="WIyWlLk6GJQsqaUBKTNV-1" vertex="1">
          <mxGeometry x="381.0000000000001" y="686.25" width="70" height="20" as="geometry" />
        </mxCell>
        <mxCell id="110" value="Research Interests" style="text;strokeColor=none;align=center;fillColor=none;html=1;verticalAlign=middle;whiteSpace=wrap;rounded=0;sketch=1;hachureGap=4;jiggle=2;curveFitting=1;fontFamily=Times New Roman;fontSize=20;fontStyle=1" parent="WIyWlLk6GJQsqaUBKTNV-1" vertex="1">
          <mxGeometry x="266" y="656.25" width="190" height="30" as="geometry" />
        </mxCell>
      </root>
    </mxGraphModel>
  </diagram>
</mxfile>
